# xmcd CD database file
# Copyright (C) 1993-1997  Ti Kan
#
# Track frame offsets:
#	187
#	12342
#	24760
#	38475
#	52730
#	65207
#	78550
#	93870
#	105502
#	117585
#	130592
#	142535
#	153030
#	171555
#	187495
#	207530
#	223485
#	237275
#	254205
#	270567
#	283495
#	294207
#	307457
#
# Disc length: 4340 seconds
#
# Revision: 2
# Processed by: cddbd v1.4b41PL1 Copyright (c) Steve Scherf et al.
# Submitted via: xmcd 2.1 PL1
#
DISCID=5e10f217
DTITLE=Little Milton - We're Gonna Make it and Sings Big Blues
DYEAR=1900
DGENRE=
TTITLE0=We're Gonna Make It
TTITLE1=You're Welcome To The Club
TTITLE2=I'm Gonna Move To the Outskirts of Town
TTITLE3=Blues In the Night
TTITLE4=Country Style
TTITLE5=Who's Cheating Who?
TTITLE6=Blind Man
TTITLE7=Can't Hold Back the Tears
TTITLE8=Believe In Me
TTITLE9=Stand By Me
TTITLE10=Life Is Like That
TTITLE11=Ain't No Big Deal on You
TTITLE12=Feel So Bad
TTITLE13=Reconsider Baby
TTITLE14=Stormy Monday
TTITLE15=Woke Up This Morning
TTITLE16=Hard Luck Blues
TTITLE17=Please, Please, Please
TTITLE18=Sweet Sixteen
TTITLE19=Fever
TTITLE20=Sneakin' Around
TTITLE21=Have Mercy, Baby
TTITLE22=Part Time Love
EXTD=MCA Records CHD-5906\nWas originally released as two seperate LPs
EXTD=:\n  We're Gonna Make It (tracks 1-12]\n    Recording: Chicago, 19
EXTD=63-1965\n    "Little" Milton Campbell: vocals, guitar\n    David H
EXTD=ines: trumpet\n    Leonard Caston: piano\n    Roosevelt Williams: 
EXTD=bass\n    Ira Gates: drums\n    James Carter: tenor sax\n    Robert
EXTD=Crowder: baritone sax\n    Joe Campbell: trumpet\n  Sings Big Blu
EXTD=es (tracks 13-23]\n    Recording: Chicago, 1966\n    "Little" Milt
EXTD=on Campbell: vocals, guitar\n    Sonny Thompson: piano\n    Roosev
EXTD=elt Williams: bass\n    Ira Gates: drums\n    Phil Upchurch: guita
EXTD=r\n    Donald Adams: tenor sax\n    John Norment: baritone sax\n\nEn
EXTD=try: Mike Lempriere  mikel@speakeasy.org  09-Jan-1997\n
EXTT0=Start: "We're Gonna Make It"\n
EXTT1=
EXTT2=
EXTT3=
EXTT4=
EXTT5=
EXTT6=
EXTT7=
EXTT8=
EXTT9=
EXTT10=
EXTT11=
EXTT12=Start: "Sings Big Blues"\n
EXTT13=
EXTT14=
EXTT15=
EXTT16=
EXTT17=
EXTT18=
EXTT19=
EXTT20=
EXTT21=
EXTT22=
PLAYORDER=
